<svg data-v-423bf9ae="" xmlns="http://www.w3.org/2000/svg" viewBox="0 0 182.76426274033307 174" class="iconAbove"><!----><!----><!----><g data-v-423bf9ae="" id="7a646f3c-c09c-4475-a979-6cb1f5bbe447" fill="black" transform="matrix(6.423982764430195,0,0,6.423982764430195,-4.1094043612331745,89.96055265454319)"><path d="M8.34 4.07L8.34 4.07Q8.47 3.92 8.71 3.84L8.71 3.84L8.71 3.84Q8.95 3.75 9.18 3.75L9.18 3.75L9.18 3.75Q9.41 3.75 9.55 3.83L9.55 3.83L9.55 3.83Q9.70 3.91 9.70 4.05L9.70 4.05L9.70 4.05Q9.70 4.17 9.58 4.34L9.58 4.34L9.58 4.34Q8.41 5.88 7.64 7.67L7.64 7.67L7.64 7.67Q6.86 9.45 6.29 11.62L6.29 11.62L6.29 11.62Q6.23 11.84 5.94 12.01L5.94 12.01L5.94 12.01Q5.64 12.17 5.33 12.17L5.33 12.17L5.33 12.17Q5.11 12.17 4.96 12.07L4.96 12.07L4.96 12.07Q4.82 11.97 4.80 11.76L4.80 11.76L4.80 11.76Q4.68 10.46 4.48 7.97L4.48 7.97L4.48 7.97Q3.26 10.37 2.60 11.90L2.60 11.90L2.60 11.90Q2.55 12.12 2.26 12.29L2.26 12.29L2.26 12.29Q1.97 12.45 1.68 12.45L1.68 12.45L1.68 12.45Q1.50 12.45 1.34 12.36L1.34 12.36L1.34 12.36Q1.13 12.29 1.13 12.12L1.13 12.12L1.13 12.12Q1.13 12.08 1.16 12.00L1.16 12.00L1.16 12.00Q1.01 10.28 0.78 6.80L0.78 6.80L0.64 4.75L0.64 4.75Q0.63 4.48 0.95 4.28L0.95 4.28L0.95 4.28Q1.27 4.09 1.64 4.09L1.64 4.09L1.64 4.09Q1.85 4.09 1.99 4.18L1.99 4.18L1.99 4.18Q2.13 4.27 2.14 4.45L2.14 4.45L2.45 9.11L2.45 9.11Q3.28 7.41 4.28 5.63L4.28 5.63L4.28 5.63Q4.30 5.39 4.62 5.21L4.62 5.21L4.62 5.21Q4.94 5.03 5.28 5.03L5.28 5.03L5.28 5.03Q5.54 5.03 5.67 5.15L5.67 5.15L5.67 5.15Q5.78 5.25 5.77 5.36L5.77 5.36L5.78 5.39L5.78 5.39Q5.85 6.22 6.02 8.11L6.02 8.11L6.02 8.11Q7.01 5.71 8.34 4.07L8.34 4.07ZM10.68 10.51L10.68 10.51Q10.65 10.68 10.65 10.75L10.65 10.75L10.65 10.75Q10.65 11.31 11.20 11.31L11.20 11.31L11.20 11.31Q11.52 11.31 11.98 11.13L11.98 11.13L11.98 11.13Q12.40 10.96 13.54 10.42L13.54 10.42L13.54 10.42Q13.57 10.07 13.60 9.74L13.60 9.74L13.60 9.74Q13.64 9.41 13.66 9.14L13.66 9.14L13.76 8.18L13.76 8.18Q12.80 8.64 12.32 8.90L12.32 8.90L12.32 8.90Q11.62 9.31 11.20 9.67L11.20 9.67L11.20 9.67Q10.78 10.02 10.68 10.51L10.68 10.51ZM14.32 3.92L14.32 3.92Q14.95 3.92 15.17 4.23L15.17 4.23L15.17 4.23Q15.39 4.55 15.39 5.15L15.39 5.15L15.37 5.54L15.37 5.54Q15.32 6.57 15.12 8.54L15.12 8.54L15.12 8.54Q15.08 8.82 15.02 9.48L15.02 9.48L15.02 9.48Q14.97 9.88 14.92 10.14L14.92 10.14L14.92 10.14Q15.08 10.22 15.08 10.36L15.08 10.36L15.08 10.36Q15.08 10.46 14.98 10.65L14.98 10.65L14.92 10.72L14.84 10.81L14.84 10.81Q14.74 11.52 14.74 12.03L14.74 12.03L14.74 12.03Q14.94 12.14 14.94 12.29L14.94 12.29L14.94 12.29Q14.94 12.53 14.59 12.80L14.59 12.80L14.59 12.80Q14.49 12.87 14.36 12.94L14.36 12.94L14.36 12.94Q14.27 12.99 14.09 13.03L14.09 13.03L14.09 13.03Q13.92 13.08 13.75 13.08L13.75 13.08L13.75 13.08Q13.23 13.08 13.27 12.70L13.27 12.70L13.38 11.52L13.38 11.52Q11.51 12.42 10.50 12.42L10.50 12.42L10.50 12.42Q9.23 12.42 9.23 11.05L9.23 11.05L9.23 11.05Q9.23 9.73 10.59 8.81L10.59 8.81L10.59 8.81Q11.96 7.88 13.86 7.14L13.86 7.14L13.86 7.14Q13.92 6.59 13.94 6.03L13.94 6.03L13.94 6.03Q13.94 5.92 13.96 5.75L13.96 5.75L13.96 5.75Q13.97 5.59 13.97 5.38L13.97 5.38L13.97 5.38Q13.97 5.11 13.93 5.03L13.93 5.03L13.89 4.97L13.87 4.97L13.87 4.97Q13.66 4.97 13.09 5.54L13.09 5.54L13.09 5.54Q12.57 6.05 11.80 7.06L11.80 7.06L11.80 7.06Q11.69 7.21 11.43 7.31L11.43 7.31L11.43 7.31Q11.17 7.41 10.91 7.41L10.91 7.41L10.91 7.41Q10.71 7.41 10.58 7.34L10.58 7.34L10.58 7.34Q10.44 7.27 10.44 7.13L10.44 7.13L10.44 7.13Q10.44 7.01 10.56 6.83L10.56 6.83L10.56 6.83Q12.49 3.92 14.32 3.92L14.32 3.92ZM21.11 4.09L21.11 4.09Q21.21 3.95 21.51 3.84L21.51 3.84L21.51 3.84Q21.81 3.74 22.08 3.74L22.08 3.74L22.08 3.74Q22.27 3.74 22.39 3.79L22.39 3.79L22.39 3.79Q22.51 3.85 22.51 3.98L22.51 3.98L22.51 3.98Q22.51 4.07 22.44 4.19L22.44 4.19L22.44 4.19Q21.29 6.10 20.52 7.99L20.52 7.99L20.52 7.99Q19.74 9.87 19.32 11.89L19.32 11.89L19.32 11.89Q19.26 12.15 18.92 12.37L18.92 12.37L18.92 12.37Q18.58 12.59 18.24 12.59L18.24 12.59L18.24 12.59Q17.86 12.59 17.77 12.29L17.77 12.29L17.77 12.29Q17.23 10.72 17.02 9.09L17.02 9.09L17.02 9.09Q16.80 7.46 16.62 4.87L16.62 4.87L16.60 4.58L16.60 4.58Q16.59 4.27 16.97 4.03L16.97 4.03L16.97 4.03Q17.36 3.79 17.74 3.79L17.74 3.79L17.74 3.79Q18.10 3.79 18.12 4.05L18.12 4.05L18.12 4.05Q18.14 4.38 18.14 4.58L18.14 4.58L18.14 4.62L18.14 4.62Q18.30 7.29 18.59 8.96L18.59 8.96L18.59 8.96Q19.56 6.19 21.11 4.09L21.11 4.09ZM26.08 5.07L26.08 5.07Q25.37 5.61 24.92 6.83L24.92 6.83L24.92 6.83Q26.29 6.31 27.40 5.96L27.40 5.96L27.40 5.96Q26.94 5.32 26.46 5.10L26.46 5.10L26.46 5.10Q26.36 5.05 26.27 5.04L26.27 5.04L26.27 5.04Q26.18 5.03 26.17 5.03L26.17 5.03L26.17 5.03Q26.18 5.04 26.15 5.05L26.15 5.05L26.15 5.05Q26.11 5.07 26.08 5.07L26.08 5.07ZM26.14 4.07L26.14 4.07Q26.36 4.02 26.61 4.02L26.61 4.02L26.61 4.02Q27.96 4.02 29.05 5.82L29.05 5.82L29.05 5.82Q29.09 5.88 29.09 5.96L29.09 5.96L29.09 5.96Q29.09 6.12 28.90 6.29L28.90 6.29L28.90 6.29Q28.74 6.45 28.50 6.55L28.50 6.55L28.50 6.55Q27.10 7.17 24.61 8.02L24.61 8.02L24.61 8.02Q24.47 8.74 24.47 9.49L24.47 9.49L24.47 9.49Q24.47 9.84 24.49 10.00L24.49 10.00L24.49 10.00Q24.51 10.63 24.74 11.09L24.74 11.09L24.74 11.09Q24.81 11.24 24.94 11.38L24.94 11.38L24.94 11.38Q25.07 11.52 25.14 11.56L25.14 11.56L25.14 11.56Q25.19 11.59 25.28 11.59L25.28 11.59L25.28 11.59Q25.38 11.59 25.52 11.54L25.52 11.54L25.52 11.54Q25.65 11.48 25.82 11.38L25.82 11.38L25.82 11.38Q26.22 11.14 26.57 10.84L26.57 10.84L26.57 10.84Q26.92 10.53 27.41 10.04L27.41 10.04L27.41 10.04Q27.61 9.84 28.07 9.84L28.07 9.84L28.07 9.84Q28.32 9.84 28.50 9.92L28.50 9.92L28.50 9.92Q28.67 10.00 28.67 10.14L28.67 10.14L28.67 10.14Q28.67 10.26 28.53 10.42L28.53 10.42L28.53 10.42Q27.66 11.35 26.75 12.01L26.75 12.01L26.75 12.01Q25.84 12.67 24.93 12.67L24.93 12.67L24.93 12.67Q24.50 12.67 24.12 12.49L24.12 12.49L24.12 12.49Q23.49 12.19 23.21 11.55L23.21 11.55L23.21 11.55Q22.93 10.91 22.93 10.04L22.93 10.04L22.93 10.04Q22.93 9.39 23.10 8.53L23.10 8.53L22.99 8.55L22.88 8.60L22.88 8.60Q22.67 8.67 22.54 8.67L22.54 8.67L22.54 8.67Q22.34 8.67 22.23 8.57L22.23 8.57L22.23 8.57Q22.12 8.47 22.12 8.32L22.12 8.32L22.12 8.32Q22.12 8.13 22.27 7.96L22.27 7.96L22.27 7.96Q22.41 7.78 22.71 7.67L22.71 7.67L23.39 7.41L23.39 7.41Q23.52 7.01 23.77 6.38L23.77 6.38L23.77 6.38Q24.16 5.52 24.75 4.89L24.75 4.89L24.75 4.89Q25.34 4.26 26.14 4.07L26.14 4.07Z"></path></g><!----><g data-v-423bf9ae="" id="d018730f-db4e-48d2-a5d6-bf9a45271175" transform="matrix(1.0592777676052518,0,0,1.0592777676052518,39.03611161973741,-1.6312396964221634)" stroke="none" fill="black"><path d="M48.131 2.33v.051l.103-.051h3.021l.358.051.051-.051.308.051c4.232 0 9.387.99 15.463 2.97 3.414 1.263 6.793 2.902 10.139 4.916 2.082 1.229 4.506 3.021 7.271 5.376 3.346 3.175 5.564 5.632 6.656 7.374a43.796 43.796 0 0 1 5.991 11.213c1.639 4.984 2.458 9.336 2.458 13.057l.05.204h-.051l.051.051v3.225l-.051.052.051.052c0 2.525-.512 6.16-1.536 10.906-.956 3.345-1.997 6.212-3.123 8.602-1.229 2.424-2.901 5.035-5.019 7.834-1.365 1.673-3.141 3.567-5.325 5.684-3.516 2.97-6.485 5.172-8.909 6.605-1.058.546-2.014.819-2.867.819-2.287 0-3.823-1.127-4.608-3.38-.137-.614-.205-1.144-.205-1.587 0-1.946 1.707-3.806 5.121-5.581 1.058-.512 2.747-1.81 5.068-3.892 2.97-2.936 5.035-5.376 6.196-7.322a36.877 36.877 0 0 0 3.328-6.4c1.229-3.481 1.843-5.752 1.843-6.81l.513-3.277-.103-.051.103-.308v-.461l.051-.052-.051-.051.051-.205.051-2.304c0-10.172-3.771-19.014-11.315-26.523-2.799-2.492-4.864-4.113-6.195-4.864C66.105 13.918 58.749 11.75 51 11.75h-2.355l-.307.051v-.051l-.051.051h-.052c-3.447 0-7.612.802-12.493 2.407-2.595.99-5.206 2.287-7.834 3.892-1.673.99-3.994 2.867-6.964 5.632l-1.69 1.843c-6.52 7.271-9.78 15.6-9.78 24.987l.051.563h-.052l.051.051v.051c0 6.691 2.799 14.371 8.397 23.042 4.54 6.759 7.886 11.862 10.036 15.31a47.732 47.732 0 0 1 2.201 4.199h-.051a78.349 78.349 0 0 1-12.801-7.322c-3.004-2.355-5.444-4.729-7.322-7.117-2.15-3.004-3.738-5.564-4.762-7.681-1.229-2.39-2.373-5.376-3.431-8.961-.614-2.253-1.109-4.693-1.485-7.321L.05 52.56h.051l-.051-.052L0 49.897v-1.434l.051-.051L0 48.361v-.051l.051-.051L0 48.208l.051-.307c0-4.677 1.229-10.053 3.687-16.129 1.536-3.379 3.533-6.725 5.991-10.036 1.297-1.775 3.431-4.079 6.4-6.913 3.072-2.594 6.025-4.676 8.858-6.247 2.526-1.4 5.718-2.748 9.575-4.045 3.141-1.024 7.254-1.741 12.34-2.15l1.229-.051zm.563 13.364v.103l.051-.103h2.919l.051.103.052-.103c2.287.068 5.223.546 8.807 1.434 3.106.99 5.684 2.065 7.731 3.226 1.912 1.058 4.097 2.663 6.555 4.813 3.072 2.97 5.052 5.206 5.939 6.708a31.03 31.03 0 0 1 3.892 7.732c.751 1.877 1.28 4.591 1.587 8.141v.051h-.051l.051.051v1.895c0 9.25-3.823 17.512-11.47 24.782-3.516 3.106-5.769 4.711-6.759 4.813a4.857 4.857 0 0 1-1.997.409h-.102c-2.151 0-3.653-1.075-4.506-3.226l-.257-1.536c0-2.253 1.502-4.045 4.506-5.376.956-.479 2.065-1.332 3.328-2.561 2.015-2.117 3.448-4.062 4.302-5.838.785-1.365 1.536-3.276 2.253-5.734.409-2.014.614-3.465.614-4.352h.051l-.051-.104.051-.256v-2.765l-.051-.256h.051l-.051-.205c0-2.492-.87-5.496-2.611-9.012-.854-1.57-2.1-3.243-3.738-5.018-1.74-1.775-3.208-3.004-4.403-3.687-4.847-3.106-9.677-4.66-14.49-4.66h-.153l-.052-.103-.051.103h-.154l-.051-.103-.051.103h-.563l-.052-.103-.051.103h-.922l-.307.051v-.051c-2.15.205-3.823.478-5.019.819-5.734 1.638-10.206 4.335-13.415 8.09-1.844 2.014-3.277 4.147-4.301 6.4-1.331 3.106-1.997 6.025-1.997 8.756v1.075l-.051.051.051.051v.102c0 4.506 1.707 9.268 5.12 14.286C37.6 78.583 44.273 89.524 48.95 97.614l-.051.051h-.052c-5.974-.546-9.968-1.109-11.981-1.689-7.953-12.562-12.408-19.543-13.364-20.941-4.233-6.418-6.861-11.129-7.885-14.133a32.963 32.963 0 0 1-1.69-10.497c0-7.851 2.577-15.054 7.732-21.608.785-1.024 2.406-2.646 4.864-4.864 4.643-3.687 9.711-6.127 15.207-7.322 1.981-.439 4.301-.747 6.964-.917zm.82 13.62v.103l.051-.103h1.588l.103.103.051-.103h.051l.052.103.051-.103c1.502 0 3.533.358 6.094 1.075 5.188 1.843 9.131 5.257 11.828 10.241 1.502 3.106 2.253 6.145 2.253 9.114v.307c0 5.667-2.441 10.804-7.322 15.412-2.048 1.639-3.909 2.458-5.581 2.458-2.083 0-3.636-1.109-4.66-3.328a5.537 5.537 0 0 1-.307-1.485c0-1.706 1.263-3.43 3.789-5.171 1.809-1.229 2.97-2.646 3.481-4.25.41-1.161.614-2.304.614-3.431v-.205c0-3.414-1.502-6.435-4.506-9.063-1.979-1.468-4.438-2.202-7.373-2.202l-.409.051v-.051l-.052.051h-.103c-2.696 0-5.291 1.16-7.782 3.481-2.015 2.321-3.021 4.984-3.021 7.988 0 2.56 1.758 6.332 5.274 11.316 9.08 14.303 16.061 25.584 20.941 33.846-4.369 1.16-7.731 1.74-10.087 1.74-4.506-6.554-9.797-14.968-15.873-25.242a202.147 202.147 0 0 0-6.963-10.805c-2.287-3.55-3.432-7.254-3.432-11.111 0-5.359 1.963-10.104 5.889-14.234 2.116-1.946 4.045-3.329 5.786-4.147 3.106-1.297 5.172-1.946 6.195-1.946.581-.136 1.707-.273 3.38-.409z"></path></g><!----></svg>