<svg data-v-fde0c5aa="" xmlns="http://www.w3.org/2000/svg" viewBox="0 0 300 300" class="font"><!----><defs data-v-fde0c5aa=""><!----></defs><rect data-v-fde0c5aa="" fill="#EDF2F3" x="0" y="0" width="300px" height="300px" class="logo-background-square"></rect><defs data-v-fde0c5aa=""><linearGradient data-v-fde0c5aa="" gradientTransform="rotate(25)" id="4ff58255-f8ee-4537-ae1b-3408b8aa3ab0" x1="0%" y1="0%" x2="100%" y2="0%"><stop data-v-fde0c5aa="" offset="0%" stop-color="#20484F" stop-opacity="1"></stop><stop data-v-fde0c5aa="" offset="100%" stop-color="#4E9BAB" stop-opacity="1"></stop></linearGradient></defs><g data-v-fde0c5aa="" id="74f562c4-fabd-44a9-9751-aaf88298ad36" fill="url(#4ff58255-f8ee-4537-ae1b-3408b8aa3ab0)" transform="matrix(7.732782038371422,0,0,7.732782038371422,35.05336241020054,84.96730239358634)"><path d="M8.34 4.07L8.34 4.07Q8.47 3.92 8.71 3.84L8.71 3.84L8.71 3.84Q8.95 3.75 9.18 3.75L9.18 3.75L9.18 3.75Q9.41 3.75 9.55 3.83L9.55 3.83L9.55 3.83Q9.70 3.91 9.70 4.05L9.70 4.05L9.70 4.05Q9.70 4.17 9.58 4.34L9.58 4.34L9.58 4.34Q8.41 5.88 7.64 7.67L7.64 7.67L7.64 7.67Q6.86 9.45 6.29 11.62L6.29 11.62L6.29 11.62Q6.23 11.84 5.94 12.01L5.94 12.01L5.94 12.01Q5.64 12.17 5.33 12.17L5.33 12.17L5.33 12.17Q5.11 12.17 4.96 12.07L4.96 12.07L4.96 12.07Q4.82 11.97 4.80 11.76L4.80 11.76L4.80 11.76Q4.68 10.46 4.48 7.97L4.48 7.97L4.48 7.97Q3.26 10.37 2.60 11.90L2.60 11.90L2.60 11.90Q2.55 12.12 2.26 12.29L2.26 12.29L2.26 12.29Q1.97 12.45 1.68 12.45L1.68 12.45L1.68 12.45Q1.50 12.45 1.34 12.36L1.34 12.36L1.34 12.36Q1.13 12.29 1.13 12.12L1.13 12.12L1.13 12.12Q1.13 12.08 1.16 12.00L1.16 12.00L1.16 12.00Q1.01 10.28 0.78 6.80L0.78 6.80L0.64 4.75L0.64 4.75Q0.63 4.48 0.95 4.28L0.95 4.28L0.95 4.28Q1.27 4.09 1.64 4.09L1.64 4.09L1.64 4.09Q1.85 4.09 1.99 4.18L1.99 4.18L1.99 4.18Q2.13 4.27 2.14 4.45L2.14 4.45L2.45 9.11L2.45 9.11Q3.28 7.41 4.28 5.63L4.28 5.63L4.28 5.63Q4.30 5.39 4.62 5.21L4.62 5.21L4.62 5.21Q4.94 5.03 5.28 5.03L5.28 5.03L5.28 5.03Q5.54 5.03 5.67 5.15L5.67 5.15L5.67 5.15Q5.78 5.25 5.77 5.36L5.77 5.36L5.78 5.39L5.78 5.39Q5.85 6.22 6.02 8.11L6.02 8.11L6.02 8.11Q7.01 5.71 8.34 4.07L8.34 4.07ZM10.68 10.51L10.68 10.51Q10.65 10.68 10.65 10.75L10.65 10.75L10.65 10.75Q10.65 11.31 11.20 11.31L11.20 11.31L11.20 11.31Q11.52 11.31 11.98 11.13L11.98 11.13L11.98 11.13Q12.40 10.96 13.54 10.42L13.54 10.42L13.54 10.42Q13.57 10.07 13.60 9.74L13.60 9.74L13.60 9.74Q13.64 9.41 13.66 9.14L13.66 9.14L13.76 8.18L13.76 8.18Q12.80 8.64 12.32 8.90L12.32 8.90L12.32 8.90Q11.62 9.31 11.20 9.67L11.20 9.67L11.20 9.67Q10.78 10.02 10.68 10.51L10.68 10.51ZM14.32 3.92L14.32 3.92Q14.95 3.92 15.17 4.23L15.17 4.23L15.17 4.23Q15.39 4.55 15.39 5.15L15.39 5.15L15.37 5.54L15.37 5.54Q15.32 6.57 15.12 8.54L15.12 8.54L15.12 8.54Q15.08 8.82 15.02 9.48L15.02 9.48L15.02 9.48Q14.97 9.88 14.92 10.14L14.92 10.14L14.92 10.14Q15.08 10.22 15.08 10.36L15.08 10.36L15.08 10.36Q15.08 10.46 14.98 10.65L14.98 10.65L14.92 10.72L14.84 10.81L14.84 10.81Q14.74 11.52 14.74 12.03L14.74 12.03L14.74 12.03Q14.94 12.14 14.94 12.29L14.94 12.29L14.94 12.29Q14.94 12.53 14.59 12.80L14.59 12.80L14.59 12.80Q14.49 12.87 14.36 12.94L14.36 12.94L14.36 12.94Q14.27 12.99 14.09 13.03L14.09 13.03L14.09 13.03Q13.92 13.08 13.75 13.08L13.75 13.08L13.75 13.08Q13.23 13.08 13.27 12.70L13.27 12.70L13.38 11.52L13.38 11.52Q11.51 12.42 10.50 12.42L10.50 12.42L10.50 12.42Q9.23 12.42 9.23 11.05L9.23 11.05L9.23 11.05Q9.23 9.73 10.59 8.81L10.59 8.81L10.59 8.81Q11.96 7.88 13.86 7.14L13.86 7.14L13.86 7.14Q13.92 6.59 13.94 6.03L13.94 6.03L13.94 6.03Q13.94 5.92 13.96 5.75L13.96 5.75L13.96 5.75Q13.97 5.59 13.97 5.38L13.97 5.38L13.97 5.38Q13.97 5.11 13.93 5.03L13.93 5.03L13.89 4.97L13.87 4.97L13.87 4.97Q13.66 4.97 13.09 5.54L13.09 5.54L13.09 5.54Q12.57 6.05 11.80 7.06L11.80 7.06L11.80 7.06Q11.69 7.21 11.43 7.31L11.43 7.31L11.43 7.31Q11.17 7.41 10.91 7.41L10.91 7.41L10.91 7.41Q10.71 7.41 10.58 7.34L10.58 7.34L10.58 7.34Q10.44 7.27 10.44 7.13L10.44 7.13L10.44 7.13Q10.44 7.01 10.56 6.83L10.56 6.83L10.56 6.83Q12.49 3.92 14.32 3.92L14.32 3.92ZM21.11 4.09L21.11 4.09Q21.21 3.95 21.51 3.84L21.51 3.84L21.51 3.84Q21.81 3.74 22.08 3.74L22.08 3.74L22.08 3.74Q22.27 3.74 22.39 3.79L22.39 3.79L22.39 3.79Q22.51 3.85 22.51 3.98L22.51 3.98L22.51 3.98Q22.51 4.07 22.44 4.19L22.44 4.19L22.44 4.19Q21.29 6.10 20.52 7.99L20.52 7.99L20.52 7.99Q19.74 9.87 19.32 11.89L19.32 11.89L19.32 11.89Q19.26 12.15 18.92 12.37L18.92 12.37L18.92 12.37Q18.58 12.59 18.24 12.59L18.24 12.59L18.24 12.59Q17.86 12.59 17.77 12.29L17.77 12.29L17.77 12.29Q17.23 10.72 17.02 9.09L17.02 9.09L17.02 9.09Q16.80 7.46 16.62 4.87L16.62 4.87L16.60 4.58L16.60 4.58Q16.59 4.27 16.97 4.03L16.97 4.03L16.97 4.03Q17.36 3.79 17.74 3.79L17.74 3.79L17.74 3.79Q18.10 3.79 18.12 4.05L18.12 4.05L18.12 4.05Q18.14 4.38 18.14 4.58L18.14 4.58L18.14 4.62L18.14 4.62Q18.30 7.29 18.59 8.96L18.59 8.96L18.59 8.96Q19.56 6.19 21.11 4.09L21.11 4.09ZM26.08 5.07L26.08 5.07Q25.37 5.61 24.92 6.83L24.92 6.83L24.92 6.83Q26.29 6.31 27.40 5.96L27.40 5.96L27.40 5.96Q26.94 5.32 26.46 5.10L26.46 5.10L26.46 5.10Q26.36 5.05 26.27 5.04L26.27 5.04L26.27 5.04Q26.18 5.03 26.17 5.03L26.17 5.03L26.17 5.03Q26.18 5.04 26.15 5.05L26.15 5.05L26.15 5.05Q26.11 5.07 26.08 5.07L26.08 5.07ZM26.14 4.07L26.14 4.07Q26.36 4.02 26.61 4.02L26.61 4.02L26.61 4.02Q27.96 4.02 29.05 5.82L29.05 5.82L29.05 5.82Q29.09 5.88 29.09 5.96L29.09 5.96L29.09 5.96Q29.09 6.12 28.90 6.29L28.90 6.29L28.90 6.29Q28.74 6.45 28.50 6.55L28.50 6.55L28.50 6.55Q27.10 7.17 24.61 8.02L24.61 8.02L24.61 8.02Q24.47 8.74 24.47 9.49L24.47 9.49L24.47 9.49Q24.47 9.84 24.49 10.00L24.49 10.00L24.49 10.00Q24.51 10.63 24.74 11.09L24.74 11.09L24.74 11.09Q24.81 11.24 24.94 11.38L24.94 11.38L24.94 11.38Q25.07 11.52 25.14 11.56L25.14 11.56L25.14 11.56Q25.19 11.59 25.28 11.59L25.28 11.59L25.28 11.59Q25.38 11.59 25.52 11.54L25.52 11.54L25.52 11.54Q25.65 11.48 25.82 11.38L25.82 11.38L25.82 11.38Q26.22 11.14 26.57 10.84L26.57 10.84L26.57 10.84Q26.92 10.53 27.41 10.04L27.41 10.04L27.41 10.04Q27.61 9.84 28.07 9.84L28.07 9.84L28.07 9.84Q28.32 9.84 28.50 9.92L28.50 9.92L28.50 9.92Q28.67 10.00 28.67 10.14L28.67 10.14L28.67 10.14Q28.67 10.26 28.53 10.42L28.53 10.42L28.53 10.42Q27.66 11.35 26.75 12.01L26.75 12.01L26.75 12.01Q25.84 12.67 24.93 12.67L24.93 12.67L24.93 12.67Q24.50 12.67 24.12 12.49L24.12 12.49L24.12 12.49Q23.49 12.19 23.21 11.55L23.21 11.55L23.21 11.55Q22.93 10.91 22.93 10.04L22.93 10.04L22.93 10.04Q22.93 9.39 23.10 8.53L23.10 8.53L22.99 8.55L22.88 8.60L22.88 8.60Q22.67 8.67 22.54 8.67L22.54 8.67L22.54 8.67Q22.34 8.67 22.23 8.57L22.23 8.57L22.23 8.57Q22.12 8.47 22.12 8.32L22.12 8.32L22.12 8.32Q22.12 8.13 22.27 7.96L22.27 7.96L22.27 7.96Q22.41 7.78 22.71 7.67L22.71 7.67L23.39 7.41L23.39 7.41Q23.52 7.01 23.77 6.38L23.77 6.38L23.77 6.38Q24.16 5.52 24.75 4.89L24.75 4.89L24.75 4.89Q25.34 4.26 26.14 4.07L26.14 4.07Z"></path></g><!----><!----></svg>