<svg xmlns="http://www.w3.org/2000/svg" xmlns:xlink="http://www.w3.org/1999/xlink" width="141.256" height="134.666" viewBox="0 0 141.256 134.666">
  <defs>
    <linearGradient id="linear-gradient" x2="1" gradientUnits="objectBoundingBox">
      <stop offset="0" stop-color="#1e6fc1"/>
      <stop offset="1" stop-color="#58bfe8"/>
    </linearGradient>
  </defs>
  <g id="default" transform="translate(-79.372 -40)">
    <g id="_61dd6adb-5afd-40e1-8dce-4199e75d38aa" data-name="61dd6adb-5afd-40e1-8dce-4199e75d38aa" transform="translate(79.372 36.709)">
      <path id="Path_2" data-name="Path 2" d="M67.988,3.291v.072l.146-.072H72.4l.506.072.072-.072.435.072q8.967,0,21.842,4.2A84.907,84.907,0,0,1,109.578,14.5,76.452,76.452,0,0,1,119.849,22.1q7.09,6.727,9.4,10.416a61.864,61.864,0,0,1,8.463,15.839q3.473,10.56,3.472,18.444l.071.288h-.072l.072.072v4.556l-.072.073.072.073a79.234,79.234,0,0,1-2.17,15.405,80.935,80.935,0,0,1-4.411,12.151,74.453,74.453,0,0,1-7.09,11.066,96.487,96.487,0,0,1-7.522,8.029,97.813,97.813,0,0,1-12.585,9.33,8.989,8.989,0,0,1-4.05,1.157q-4.846,0-6.509-4.774a10.529,10.529,0,0,1-.29-2.242q0-4.123,7.234-7.883,2.242-1.085,7.159-5.5a57.311,57.311,0,0,0,8.752-10.343,52.091,52.091,0,0,0,4.7-9.04q2.6-7.376,2.6-9.62l.725-4.629-.145-.072.145-.435v-.651l.072-.073-.072-.072.072-.29.072-3.255q0-21.553-15.983-37.465a60.4,60.4,0,0,0-8.751-6.871A58.049,58.049,0,0,0,72.041,16.6H68.714l-.434.072V16.6l-.072.072h-.073q-7.3,0-17.647,3.4a67.3,67.3,0,0,0-11.066,5.5,64.944,64.944,0,0,0-9.837,7.956l-2.387,2.6q-13.815,15.406-13.815,35.3l.072.8h-.073l.072.072v.072q0,14.177,11.861,32.548,9.62,14.321,14.176,21.626,1.7,2.887,3.109,5.931h-.072a110.673,110.673,0,0,1-18.082-10.343A60.737,60.737,0,0,1,14.1,112.071a77.695,77.695,0,0,1-6.727-10.85A73.511,73.511,0,0,1,2.53,88.563a85.357,85.357,0,0,1-2.1-10.341L.071,74.244H.143l-.072-.073L0,70.483V68.457l.072-.072L0,68.313v-.072l.072-.072L0,68.1l.072-.434q0-9.91,5.208-22.783A77.99,77.99,0,0,1,13.743,30.7a80.573,80.573,0,0,1,9.04-9.765A79.177,79.177,0,0,1,35.3,12.114,82.567,82.567,0,0,1,48.821,6.4,77.946,77.946,0,0,1,66.252,3.363Zm.8,18.877v.145l.072-.145h4.123l.072.145.073-.145a61.673,61.673,0,0,1,12.44,2.026,58.18,58.18,0,0,1,10.921,4.557,55.488,55.488,0,0,1,9.259,6.8q6.509,6.293,8.389,9.475a43.832,43.832,0,0,1,5.5,10.922,42.21,42.21,0,0,1,2.242,11.5v.072H121.8l.072.072v2.677q0,19.6-16.2,35.006-7.45,6.581-9.548,6.8a6.861,6.861,0,0,1-2.821.578h-.144q-4.558,0-6.365-4.557l-.363-2.17q0-4.774,6.365-7.594a20.185,20.185,0,0,0,4.7-3.618,33.674,33.674,0,0,0,6.077-8.247,38.16,38.16,0,0,0,3.182-8.1,35.341,35.341,0,0,0,.867-6.147h.072l-.072-.147.072-.362V67.8l-.072-.362h.072l-.072-.29q0-5.28-3.688-12.73a36.34,36.34,0,0,0-5.28-7.088,31.32,31.32,0,0,0-6.22-5.208q-10.27-6.581-20.468-6.583h-.216l-.073-.145-.072.145h-.218l-.072-.145-.072.145h-.8l-.073-.145-.072.145H69l-.434.072v-.072a41.6,41.6,0,0,0-7.09,1.157Q49.328,40.172,42.528,48.129a34.592,34.592,0,0,0-6.075,9.04,31.5,31.5,0,0,0-2.821,12.368v1.519l-.072.072.072.072v.144q0,9.547,7.232,20.18,18.372,29.219,28.281,46.362l-.072.072H69q-12.658-1.157-16.924-2.386Q35.224,108.955,33.2,105.991q-8.969-13.6-11.138-19.964A46.562,46.562,0,0,1,19.673,71.2q0-16.635,10.922-30.523a62.663,62.663,0,0,1,6.871-6.871A51.969,51.969,0,0,1,58.946,23.464a65.094,65.094,0,0,1,9.837-1.3Zm1.158,19.239v.145l.072-.145h2.243l.145.145.072-.145h.072l.073.145.072-.145A33.985,33.985,0,0,1,81.3,42.926,29.836,29.836,0,0,1,98.008,57.392a29.452,29.452,0,0,1,3.182,12.874V70.7q0,12.007-10.343,21.77-4.339,3.473-7.883,3.472-4.414,0-6.583-4.7a7.822,7.822,0,0,1-.434-2.1q0-3.615,5.352-7.3a11.715,11.715,0,0,0,4.917-6,14.485,14.485,0,0,0,.867-4.846V70.7q0-7.234-6.365-12.8A17,17,0,0,0,70.3,54.788l-.578.072v-.072l-.073.072h-.145q-5.712,0-10.993,4.917A16.713,16.713,0,0,0,54.248,71.06q0,5.424,7.45,15.985,19.239,30.306,29.58,47.81-9.257,2.458-14.248,2.458-9.547-13.887-22.422-35.656-4.674-7.786-9.836-15.263a28.19,28.19,0,0,1,3.471-35.8,34,34,0,0,1,8.173-5.858Q63,41.986,65.167,41.986a39.273,39.273,0,0,1,4.774-.578Z" fill="url(#linear-gradient)"/>
    </g>
  </g>
</svg>
